PathFileType	4	(X/Y/Z)	c:/Users/goper/Files/vsCode/490R/osim_files/A03/A03_Static01.trc
DataRate	CameraRate	NumFrames	NumMarkers	Units                	OrigDataRate	OrigDataStartFrame	OrigNumFrames
250.00	250.00	5	36	mm	250.0	210	1674
                Frame#	Time	LPSIS			LASIS			LTH1			LTH2			LTH3			LTH4			LLFE			LMFE			LSH1			LSH2			LSH3			LSH4			LLMAL			LMMAL			LCAL			LMTP5			LTOE			LMTP1			RPSIS			RASIS			RTH1			RTH2			RTH3			RTH4			RLFE			RMFE			RSH1			RSH2			RSH3			RSH4			RLMAL			RMMAL			RCAL			RMTP1			RTOE			RMTP5		
		X1	Y1	Z1	X2	Y2	Z2	X3	Y3	Z3	X4	Y4	Z4	X5	Y5	Z5	X6	Y6	Z6	X7	Y7	Z7	X8	Y8	Z8	X9	Y9	Z9	X10	Y10	Z10	X11	Y11	Z11	X12	Y12	Z12	X13	Y13	Z13	X14	Y14	Z14	X15	Y15	Z15	X16	Y16	Z16	X17	Y17	Z17	X18	Y18	Z18	X19	Y19	Z19	X20	Y20	Z20	X21	Y21	Z21	X22	Y22	Z22	X23	Y23	Z23	X24	Y24	Z24	X25	Y25	Z25	X26	Y26	Z26	X27	Y27	Z27	X28	Y28	Z28	X29	Y29	Z29	X30	Y30	Z30	X31	Y31	Z31	X32	Y32	Z32	X33	Y33	Z33	X34	Y34	Z34	X35	Y35	Z35	X36	Y36	Z36

210	0.83600	-343.83105	1067.04187	434.51630	-106.13112	989.24689	315.84064	-172.52493	659.77795	240.49014	-164.37241	617.08618	238.85452	-110.77251	664.16467	251.49657	-112.45367	620.30219	249.55084	-159.99800	559.99585	242.31157	-130.70726	529.54578	394.04337	-218.50809	478.60959	237.82240	-224.78793	430.25650	234.11166	-157.81754	462.55896	236.24448	-174.50899	417.70041	236.93407	-282.28278	106.18498	229.83116	-262.27686	105.59827	322.70560	-349.49521	87.63213	288.95645	-138.70706	41.73775	197.57216	-100.84361	68.08653	263.61792	-126.50819	47.92487	311.33023	-343.15991	1068.07092	502.80228	-105.69258	987.56097	623.84167	-206.58340	660.27521	699.68707	-204.81729	615.59967	696.48639	-146.21022	656.19861	706.07532	-151.44073	612.25116	702.00397	-181.48318	547.97986	690.59790	-122.60003	539.32690	578.57642	-241.11435	488.46838	686.60229	-251.62836	450.36591	702.29230	-183.67007	473.55524	703.56329	-203.24809	432.69174	716.56183	-279.13257	131.65042	700.92596	-228.94324	118.96127	622.41388	-331.83960	88.71980	647.14667	-119.63052	48.51053	629.75214	-94.39613	70.07700	680.49683	-133.00098	40.64320	747.72784
211	0.84000	-343.25171	1066.85742	434.31131	-106.13171	989.25476	315.84186	-172.55464	659.79352	240.53688	-164.42563	617.11475	238.91069	-110.82951	664.15533	251.52838	-112.50410	620.29382	249.61037	-160.07610	560.00940	242.39314	-130.75357	529.55786	394.08289	-218.56006	478.62427	237.87119	-225.03876	430.45352	234.20020	-157.85060	462.52588	236.40440	-174.56180	417.72202	236.96498	-282.27252	106.16139	229.84125	-262.28735	105.61590	322.68887	-349.52261	87.64121	288.96622	-138.69122	41.73388	197.55255	-100.93329	68.06371	263.58115	-126.48910	47.93830	311.32291	-343.21854	1068.06848	502.77972	-105.70596	987.61743	623.85229	-206.63786	660.30536	699.64801	-204.83542	615.63507	696.45819	-146.21577	656.23962	706.03558	-151.46484	612.27606	701.98199	-181.48288	548.01343	690.58173	-122.67093	539.33234	578.55219	-241.15256	488.49466	686.58887	-251.65369	450.39404	702.28162	-183.67290	473.58603	703.54578	-203.20477	432.72247	716.51434	-279.12982	131.65915	700.92200	-228.96750	118.98057	622.41113	-331.79135	88.69879	647.11865	-119.62769	48.51974	629.73541	-94.39631	70.08996	680.47736	-132.99748	40.68219	747.74457
212	0.84400	-343.29315	1066.86084	434.27078	-106.13010	989.26740	315.85428	-172.62860	659.80206	240.60950	-164.47217	617.11395	238.97197	-110.89243	664.14728	251.57732	-112.55079	620.29449	249.66814	-160.18483	560.01544	242.48854	-130.79741	529.57611	394.13724	-218.61710	478.63748	237.91978	-224.89537	430.25928	234.19963	-157.90314	462.53247	236.46623	-174.61247	417.73105	237.01932	-282.26703	106.17419	229.83974	-262.25153	105.63622	322.67303	-349.52499	87.64469	288.95499	-138.86874	41.63721	197.57634	-100.91848	68.07976	263.57422	-126.47708	47.96582	311.31052	-343.25287	1068.05676	502.74222	-105.73872	987.68311	623.83667	-206.69203	660.33508	699.63483	-204.90591	615.66229	696.43842	-146.22867	656.27063	705.99603	-151.51799	612.30200	701.94196	-181.53664	548.04889	690.53320	-122.71614	539.35205	578.54352	-241.21997	488.51639	686.55170	-251.73004	450.41678	702.24194	-183.72874	473.60547	703.51086	-203.24718	432.73785	716.50928	-279.13803	131.65884	700.91357	-228.80980	119.00777	622.34399	-331.79840	88.72057	647.08838	-119.59608	48.57048	629.71564	-94.38468	70.11382	680.46478	-132.96635	40.70353	747.72937
213	0.84800	-343.29257	1066.87061	434.23718	-106.14260	989.28314	315.85815	-172.64302	659.81421	240.61658	-164.55008	617.13507	239.02930	-110.94051	664.14594	251.61565	-112.60995	620.29523	249.72649	-160.18251	560.04822	242.49518	-130.87238	529.58948	394.19946	-218.83084	478.56845	238.00789	-225.14984	430.49146	234.28922	-157.98102	462.54694	236.50221	-174.69019	417.74255	237.06158	-282.26733	106.17509	229.81686	-262.24557	105.65829	322.67679	-349.50720	87.64417	288.93961	-138.67781	41.76554	197.55608	-100.87723	68.11731	263.54684	-126.49161	47.97794	311.30569	-343.26550	1068.04419	502.68359	-105.77519	987.70050	623.85040	-206.73682	660.36780	699.62030	-204.97388	615.70197	696.41223	-146.32579	656.28674	705.96100	-151.54372	612.32935	701.91150	-181.60422	548.09106	690.53748	-122.79542	539.35498	578.52844	-241.30109	488.53665	686.52136	-251.79742	450.43512	702.20850	-183.78113	473.62695	703.49396	-203.28258	432.75833	716.50909	-279.13931	131.67233	700.91553	-228.95569	119.00445	622.40747	-331.79932	88.74639	647.08594	-119.58804	48.59963	629.70776	-94.37513	70.14931	680.45496	-132.95364	40.72176	747.70691
214	0.85200	-343.90213	1067.04993	434.38162	-106.16335	989.28229	315.87967	-172.68669	659.84741	240.67049	-164.60680	617.13824	239.09790	-110.98241	664.14331	251.66223	-112.68475	620.28491	249.78522	-160.26050	560.06519	242.58809	-130.96184	529.57642	394.28622	-218.70667	478.65848	238.01140	-225.20662	430.49515	234.33923	-158.03049	462.57077	236.55499	-174.72337	417.76080	237.12598	-282.23889	106.16688	229.81305	-262.25006	105.65258	322.68988	-349.51373	87.63038	288.93167	-138.67908	41.77387	197.55988	-100.79771	68.20322	263.62097	-126.49243	47.96450	311.31152	-343.28537	1068.05835	502.68021	-105.83826	987.71155	623.85638	-206.79768	660.37006	699.61450	-205.04680	615.70837	696.40057	-146.38504	656.29773	705.93848	-151.61670	612.32111	701.88293	-181.69580	548.08826	690.49268	-122.84334	539.38379	578.51910	-241.36470	488.54739	686.51056	-251.84627	450.42905	702.19940	-183.81197	473.64923	703.48505	-203.32481	432.77533	716.48926	-279.16470	131.65652	700.91028	-228.97481	118.99551	622.40753	-331.78589	88.72219	647.08856	-119.60386	48.59886	629.70331	-94.40557	70.13180	680.46344	-132.96481	40.72485	747.70239
